<svg width="637" height="211" fill="none" xmlns="http://www.w3.org/2000/svg"><path d="M12.6 52.18h46.8c11.4 0 20.4.78 27 2.34 6.72 1.56 11.58 4.32 14.58 8.28 3.12 3.84 4.68 9.24 4.68 16.2v22.14c0 7.68-1.68 13.68-5.04 18-3.24 4.32-8.46 7.38-15.66 9.18-7.08 1.8-16.68 2.7-28.8 2.7H40.68V169H12.6V52.18zm45.9 59.58c7.32 0 12.48-.84 15.48-2.52 3-1.8 4.5-4.8 4.5-9V81.52c0-3.84-1.44-6.36-4.32-7.56-2.76-1.2-8.1-1.8-16.02-1.8H40.68v39.6H58.5zm107.232 59.04c-5.4 0-9.84-.18-13.32-.54-3.48-.36-7.2-1.08-11.16-2.16-4.32-1.2-7.8-2.88-10.44-5.04-2.64-2.28-4.86-5.46-6.66-9.54-1.8-3.96-2.7-8.76-2.7-14.4v-25.74c0-5.76.9-10.8 2.7-15.12 1.8-4.32 4.14-7.68 7.02-10.08 2.52-2.04 5.82-3.72 9.9-5.04 4.2-1.44 8.28-2.34 12.24-2.7 4.56-.24 8.7-.36 12.42-.36 5.52 0 9.9.18 13.14.54 3.36.24 7.02.96 10.98 2.16 4.32 1.32 7.8 3.12 10.44 5.4 2.76 2.28 5.1 5.52 7.02 9.72 1.8 4.32 2.7 9.48 2.7 15.48v25.74c0 5.4-.9 10.14-2.7 14.22-1.68 4.08-3.9 7.26-6.66 9.54-2.4 2.04-5.7 3.72-9.9 5.04-4.08 1.2-8.1 1.98-12.06 2.34-3.6.36-7.92.54-12.96.54zm0-16.38c4.92 0 8.64-.36 11.16-1.08 2.52-.84 4.26-2.1 5.22-3.78 1.08-1.68 1.62-4.14 1.62-7.38v-32.94c0-4.8-1.26-8.16-3.78-10.08-2.52-1.92-7.26-2.88-14.22-2.88-6.96 0-11.7.96-14.22 2.88-2.52 1.92-3.78 5.28-3.78 10.08v32.94c0 3.24.48 5.7 1.44 7.38 1.08 1.68 2.88 2.94 5.4 3.78 2.52.72 6.24 1.08 11.16 1.08zM230.815 43h26.28v126h-26.28V43zm93.241 127.8c-4.44 0-8.16-.18-11.16-.54-3-.36-6-1.08-9-2.16-3.36-1.08-6.12-2.58-8.28-4.5-2.04-1.92-3.72-4.56-5.04-7.92-1.44-3.48-2.16-7.5-2.16-12.06V98.08h-17.64v-16.2h17.64v-25.2h26.28v25.2h23.94v16.2h-23.94v41.04c0 4.2.36 7.38 1.08 9.54.72 2.04 2.1 3.54 4.14 4.5 2.04.84 5.16 1.26 9.36 1.26 1.68 0 4.8-.3 9.36-.9v16.38c-5.64.6-10.5.9-14.58.9zm54.001 0c-8.16 0-14.28-.72-18.36-2.16-3.96-1.56-6.78-4.26-8.46-8.1-1.56-3.96-2.34-9.84-2.34-17.64 0-6.96.84-12.42 2.52-16.38 1.8-3.96 4.62-6.78 8.46-8.46 3.96-1.8 9.36-2.7 16.2-2.7h29.52v-5.94c0-3.72-.54-6.48-1.62-8.28-.96-1.8-2.82-3.06-5.58-3.78-2.64-.72-6.66-1.08-12.06-1.08-7.44 0-17.64.72-30.6 2.16V81.88c9.48-1.2 20.58-1.8 33.3-1.8 11.16 0 19.74.84 25.74 2.52 6.12 1.68 10.5 4.56 13.14 8.64 2.64 4.08 3.96 10.02 3.96 17.82V169h-25.74v-7.92c-2.04 3.48-4.8 5.94-8.28 7.38-3.48 1.56-10.08 2.34-19.8 2.34zm10.26-16.38c5.28 0 9.06-.18 11.34-.54 1.68-.24 2.82-.6 3.42-1.08.72-.48 1.32-1.26 1.8-2.34.48-.84.72-2.1.72-3.78v-16.92h-18c-4.08 0-6.96.3-8.64.9-1.68.48-2.82 1.56-3.42 3.24-.6 1.56-.9 4.38-.9 8.46 0 3.96.3 6.72.9 8.28.6 1.56 1.74 2.58 3.42 3.06 1.8.48 4.92.72 9.36.72zm54.761-72.54h27.9l19.08 60.3 18.36-60.3h26.46L502.838 169h-26.64l-33.12-87.12zm127.538 88.92c-8.16 0-14.28-.72-18.36-2.16-3.96-1.56-6.78-4.26-8.46-8.1-1.56-3.96-2.34-9.84-2.34-17.64 0-6.96.84-12.42 2.52-16.38 1.8-3.96 4.62-6.78 8.46-8.46 3.96-1.8 9.36-2.7 16.2-2.7h29.52v-5.94c0-3.72-.54-6.48-1.62-8.28-.96-1.8-2.82-3.06-5.58-3.78-2.64-.72-6.66-1.08-12.06-1.08-7.44 0-17.64.72-30.6 2.16V81.88c9.48-1.2 20.58-1.8 33.3-1.8 11.16 0 19.74.84 25.74 2.52 6.12 1.68 10.5 4.56 13.14 8.64 2.64 4.08 3.96 10.02 3.96 17.82V169h-25.74v-7.92c-2.04 3.48-4.8 5.94-8.28 7.38-3.48 1.56-10.08 2.34-19.8 2.34zm10.26-16.38c5.28 0 9.06-.18 11.34-.54 1.68-.24 2.82-.6 3.42-1.08.72-.48 1.32-1.26 1.8-2.34.48-.84.72-2.1.72-3.78v-16.92h-18c-4.08 0-6.96.3-8.64.9-1.68.48-2.82 1.56-3.42 3.24-.6 1.56-.9 4.38-.9 8.46 0 3.96.3 6.72.9 8.28.6 1.56 1.74 2.58 3.42 3.06 1.8.48 4.92.72 9.36.72z" fill="url(#paint0_diamond)"/><path d="M37.12 55.18h38.16c5.4 0 9.72.12 12.96.36 3.36.24 6.9.78 10.62 1.62 3.84.84 6.9 2.1 9.18 3.78 2.4 1.68 4.44 3.96 6.12 6.84 1.56 2.76 2.34 6.24 2.34 10.44v24.3c0 9.72-3.78 16.74-11.34 21.06-7.44 4.2-18.48 6.3-33.12 6.3H54.58V172H37.12V55.18zm37.26 63.72c7.56 0 13.62-1.38 18.18-4.14 4.56-2.76 6.84-7.14 6.84-13.14V80.38c0-3.24-.84-5.88-2.52-7.92-1.68-2.16-4.08-3.66-7.2-4.5-3-.72-5.52-1.2-7.56-1.44s-4.74-.36-8.1-.36H54.4v52.74h19.98zm100.816 54.9c-7.68 0-13.44-.3-17.28-.9-3.84-.48-7.68-1.62-11.52-3.42-3.96-1.8-6.84-4.68-8.64-8.64-1.8-4.08-2.7-9.54-2.7-16.38v-30.24c0-5.4.66-10.14 1.98-14.22 1.32-4.08 3.06-7.26 5.22-9.54 1.8-2.04 4.5-3.6 8.1-4.68 3.72-1.2 7.5-1.98 11.34-2.34 4.32-.24 8.82-.36 13.5-.36 6.24 0 10.92.18 14.04.54 3.24.24 6.66.84 10.26 1.8 3.72 1.08 6.6 2.7 8.64 4.86 2.04 2.16 3.78 5.28 5.22 9.36 1.32 4.2 1.98 9.06 1.98 14.58v30.24c0 10.2-2.34 17.64-7.02 22.32-1.92 1.92-4.68 3.42-8.28 4.5-3.6 1.08-7.32 1.8-11.16 2.16-4.56.24-9.12.36-13.68.36zm0-10.62c5.04 0 8.7-.12 10.98-.36 2.28-.24 4.5-.9 6.66-1.98 2.16-.96 3.66-2.52 4.5-4.68.96-2.28 1.44-5.4 1.44-9.36v-35.28c0-5.4-.66-9.3-1.98-11.7-1.32-2.52-3.6-4.14-6.84-4.86-3.12-.84-8.04-1.26-14.76-1.26-6.72 0-11.7.42-14.94 1.26-3.12.72-5.34 2.34-6.66 4.86-1.32 2.4-1.98 6.3-1.98 11.7v35.28c0 3.96.42 7.08 1.26 9.36.96 2.16 2.52 3.72 4.68 4.68 2.16 1.08 4.38 1.74 6.66 1.98 2.28.24 5.94.36 10.98.36zM240.201 46h16.2v126h-16.2V46zm80.437 127.8c-7.44 0-13.26-.78-17.46-2.34-4.2-1.68-7.26-4.44-9.18-8.28-1.8-3.96-2.7-9.48-2.7-16.56V95.5h-19.44V84.88h19.44v-27h16.38v27h31.14V95.5h-31.14v52.02c0 4.32.48 7.56 1.44 9.72 1.08 2.16 2.88 3.72 5.4 4.68 2.64.84 6.42 1.26 11.34 1.26 1.56 0 5.88-.48 12.96-1.44v10.62c-6.12.96-12.18 1.44-18.18 1.44zm62.302 0c-8.28 0-14.7-.78-19.26-2.34-4.44-1.56-7.68-4.32-9.72-8.28-1.92-3.96-2.88-9.66-2.88-17.1 0-6.6.9-11.7 2.7-15.3 1.92-3.72 5.1-6.36 9.54-7.92 4.56-1.56 10.98-2.34 19.26-2.34h26.1v-13.86c0-3.24-.66-5.7-1.98-7.38-1.2-1.8-3.3-3.06-6.3-3.78-2.88-.72-7.14-1.08-12.78-1.08-9 0-18.96.72-29.88 2.16V84.7c11.88-1.08 22.62-1.62 32.22-1.62 10.08 0 17.52.78 22.32 2.34 4.8 1.44 8.1 4.02 9.9 7.74 1.8 3.72 2.7 9.48 2.7 17.28V172h-15.66v-8.28c-1.32 6.72-10.08 10.08-26.28 10.08zm2.7-10.62c5.88 0 10.86-.42 14.94-1.26 5.4-1.08 8.1-3.6 8.1-7.56V130.6h-25.02c-5.16 0-8.88.42-11.16 1.26-2.28.72-3.78 2.16-4.5 4.32-.72 2.16-1.08 5.64-1.08 10.44 0 4.32.42 7.68 1.26 10.08.84 2.28 2.34 3.96 4.5 5.04 2.16.96 5.4 1.44 9.72 1.44h3.24zm53.975-78.3h17.1l24.12 73.08h.9l23.4-73.08h15.66L490.375 172h-19.44l-31.32-87.12zm122.7 88.92c-8.28 0-14.7-.78-19.26-2.34-4.44-1.56-7.68-4.32-9.72-8.28-1.92-3.96-2.88-9.66-2.88-17.1 0-6.6.9-11.7 2.7-15.3 1.92-3.72 5.1-6.36 9.54-7.92 4.56-1.56 10.98-2.34 19.26-2.34h26.1v-13.86c0-3.24-.66-5.7-1.98-7.38-1.2-1.8-3.3-3.06-6.3-3.78-2.88-.72-7.14-1.08-12.78-1.08-9 0-18.96.72-29.88 2.16V84.7c11.88-1.08 22.62-1.62 32.22-1.62 10.08 0 17.52.78 22.32 2.34 4.8 1.44 8.1 4.02 9.9 7.74 1.8 3.72 2.7 9.48 2.7 17.28V172h-15.66v-8.28c-1.32 6.72-10.08 10.08-26.28 10.08zm2.7-10.62c5.88 0 10.86-.42 14.94-1.26 5.4-1.08 8.1-3.6 8.1-7.56V130.6h-25.02c-5.16 0-8.88.42-11.16 1.26-2.28.72-3.78 2.16-4.5 4.32-.72 2.16-1.08 5.64-1.08 10.44 0 4.32.42 7.68 1.26 10.08.84 2.28 2.34 3.96 4.5 5.04 2.16.96 5.4 1.44 9.72 1.44h3.24z" fill="#fff"/><path stroke="#fff" stroke-width="4" d="M34 55v117M315 60v108M258 41v131m123-42v39m200-39v38M460.9 83.374l29 88M162 93v80"/><defs><radialGradient id="paint0_diamond" cx="0" cy="0" r="1" gradientUnits="userSpaceOnUse" gradientTransform="matrix(-.4515 152.17333 -466.02995 -1.38274 318.95 55.828)"><stop stop-color="#BBDAFF"/><stop offset="1" stop-color="#BBF7FF" stop-opacity="0"/></radialGradient></defs></svg>