<svg width="20" height="20" viewBox="0 0 20 20" fill="none" xmlns="http://www.w3.org/2000/svg">
<path d="M19.6576 4.09718C19.4756 2.48461 18.1285 1.21077 16.4227 1.03881C12.1451 0.607179 7.85492 0.607179 3.57742 1.03881C1.87164 1.21092 0.524445 2.48461 0.342407 4.09718C-0.114136 8.14129 -0.114136 12.1975 0.342407 16.2416C0.524445 17.8543 1.87164 19.128 3.57727 19.3001C7.85477 19.7318 12.1451 19.7318 16.4227 19.3001C18.1285 19.128 19.4756 17.8543 19.6576 16.2416C20.1141 12.1975 20.1141 8.14144 19.6576 4.09718Z" fill="url(#paint0_radial)"/>
<path d="M18.5697 4.78119C18.4082 3.35025 17.2129 2.21996 15.6992 2.06718C11.9034 1.68431 8.09636 1.68431 4.30058 2.06718C2.78706 2.21996 1.59154 3.35025 1.42995 4.78119C1.02498 8.36986 1.02498 11.9692 1.42995 15.5577C1.59154 16.9888 2.78706 18.1191 4.30058 18.2717C8.09636 18.6547 11.9034 18.6547 15.6991 18.2717C17.2127 18.1191 18.4082 16.9888 18.5697 15.5577C18.9748 11.9692 18.9748 8.36986 18.5697 4.78119Z" fill="url(#paint1_linear)"/>
<path d="M0.299805 15.8499C0.313538 15.9806 0.327728 16.1113 0.342529 16.242C0.524567 17.8545 1.87177 19.1281 3.57755 19.3002C7.85504 19.7319 12.1454 19.7319 16.4229 19.3002C18.1286 19.1281 19.4757 17.8545 19.6577 16.242C19.6725 16.1113 19.6867 15.9806 19.7006 15.8499H0.299805Z" fill="url(#paint2_linear)"/>
<path d="M19.6575 16.2416C19.9029 14.0685 20.0161 11.8921 19.9978 9.71586L15.4262 5.39376C14.8551 4.77733 14.0209 4.39258 13.0407 4.35926C11.0248 4.29059 9.00259 4.29405 6.98645 4.35955C5.31195 4.41408 4.14099 5.47816 3.8407 7.0421C3.78775 7.31822 3.75601 7.59795 3.71436 7.87608V12.461C3.7374 12.6096 3.77127 12.7575 3.7818 12.9069C3.84894 13.8582 4.26245 14.673 4.92453 15.2242L9.57663 19.6223C11.8596 19.6375 14.1428 19.5302 16.4226 19.3001C18.1284 19.128 19.4755 17.8543 19.6575 16.2416Z" fill="url(#paint3_linear)"/>
<path d="M19.6577 16.2418C19.4758 17.8542 18.1283 19.1282 16.4228 19.3002C14.1433 19.5301 11.8597 19.6376 9.57697 19.6224L4.93188 15.2308C5.47037 15.6764 6.17227 15.9478 6.98679 15.9768C9.00247 16.0483 11.0252 16.0465 13.0409 15.9778C14.864 15.9155 16.1833 14.6398 16.2402 12.9161C16.3009 11.086 16.3009 9.25113 16.2402 7.42102C16.2142 6.62584 15.919 5.92617 15.4295 5.39673L19.9981 9.71609C20.0161 11.892 19.9029 14.0688 19.6577 16.2418Z" fill="url(#paint4_linear)"/>
<path d="M12.36 8.12199C11.7744 7.51912 10.9341 7.14087 10.0001 7.14087C8.23096 7.14087 6.79663 8.49693 6.79663 10.1695C6.79663 11.0525 7.19672 11.847 7.83438 12.4007L15.246 19.4079C15.6383 19.3756 16.0306 19.3397 16.4226 19.3001C18.1284 19.128 19.4756 17.8543 19.6577 16.2416C19.6995 15.871 19.7375 15.5001 19.7716 15.1292L12.36 8.12199Z" fill="url(#paint5_linear)"/>
<path d="M19.9613 12.2063L13.9964 6.567C13.8572 6.39432 13.6379 6.28223 13.3906 6.28223C12.9698 6.28223 12.6284 6.6048 12.6284 7.00281C12.6284 7.23666 12.747 7.44396 12.9296 7.57553L19.8547 14.1228C19.9017 13.4842 19.9372 12.8453 19.9613 12.2063Z" fill="url(#paint6_linear)"/>
<path d="M3.71436 7.87608C3.75601 7.59795 3.78775 7.31822 3.8407 7.0421C4.14084 5.47816 5.31195 4.41408 6.98645 4.35955C9.00259 4.29405 11.0248 4.29059 13.0407 4.35926C14.8632 4.42129 16.1831 5.69715 16.24 7.42079C16.3006 9.25105 16.3006 11.0858 16.24 12.916C16.1831 14.6397 14.8636 15.9154 13.0408 15.9776C11.025 16.0464 9.00229 16.0481 6.9866 15.9766C5.16379 15.9118 3.90372 14.633 3.7818 12.9068C3.77127 12.7575 3.7374 12.6095 3.71436 12.4609C3.71436 10.9326 3.71436 9.40425 3.71436 7.87608ZM10.0016 14.956C10.9241 14.956 11.8476 14.9822 12.7689 14.95C14.2135 14.8993 15.102 14.0843 15.1357 12.7198C15.1775 11.0197 15.1775 9.31726 15.1357 7.61699C15.102 6.25284 14.2129 5.41872 12.7689 5.38972C10.9362 5.35308 9.10147 5.35337 7.26874 5.38972C5.83578 5.41814 4.94467 6.23539 4.90576 7.58453C4.85632 9.30615 4.85632 11.0308 4.90576 12.7524C4.94467 14.1014 5.83578 14.8998 7.26889 14.95C8.17862 14.982 9.09064 14.956 10.0016 14.956Z" fill="url(#paint7_linear)"/>
<path d="M3.71436 7.87608C3.75601 7.59795 3.78775 7.31822 3.8407 7.0421C4.14084 5.47816 5.31195 4.41408 6.98645 4.35955C9.00259 4.29405 11.0248 4.29059 13.0407 4.35926C14.8632 4.42129 16.1831 5.69715 16.24 7.42079C16.3006 9.25105 16.3006 11.0858 16.24 12.916C16.1831 14.6397 14.8636 15.9154 13.0408 15.9776C11.025 16.0464 9.00229 16.0481 6.9866 15.9766C5.16379 15.9118 3.90372 14.633 3.7818 12.9068C3.77127 12.7575 3.7374 12.6095 3.71436 12.4609C3.71436 10.9326 3.71436 9.40425 3.71436 7.87608ZM10.0016 14.956C10.9241 14.956 11.8476 14.9822 12.7689 14.95C14.2135 14.8993 15.102 14.0843 15.1357 12.7198C15.1775 11.0197 15.1775 9.31726 15.1357 7.61699C15.102 6.25284 14.2129 5.41872 12.7689 5.38972C10.9362 5.35308 9.10147 5.35337 7.26874 5.38972C5.83578 5.41814 4.94467 6.23539 4.90576 7.58453C4.85632 9.30615 4.85632 11.0308 4.90576 12.7524C4.94467 14.1014 5.83578 14.8998 7.26889 14.95C8.17862 14.982 9.09064 14.956 10.0016 14.956Z" fill="white"/>
<path d="M9.99982 7.14111C8.23071 7.14111 6.79639 8.49705 6.79639 10.1697C6.79639 11.8424 8.23071 13.1983 9.99982 13.1983C11.7691 13.1983 13.2032 11.8424 13.2032 10.1697C13.2032 8.49705 11.7691 7.14111 9.99982 7.14111ZM9.99982 12.1556C8.83969 12.1556 7.89929 11.2665 7.89929 10.1697C7.89929 9.07281 8.83969 8.18371 9.99982 8.18371C11.1599 8.18371 12.1003 9.07281 12.1003 10.1697C12.1003 11.2665 11.1599 12.1556 9.99982 12.1556Z" fill="white"/>
<path d="M14.1524 7.00274C14.1524 7.40058 13.8112 7.72311 13.3904 7.72311C12.9695 7.72311 12.6282 7.40058 12.6282 7.00274C12.6282 6.60476 12.9695 6.28223 13.3904 6.28223C13.8112 6.28223 14.1524 6.60476 14.1524 7.00274Z" fill="white"/>
<defs>
<radialGradient id="paint0_radial" cx="0" cy="0" r="1" gradientUnits="userSpaceOnUse" gradientTransform="translate(4.09989 17.2399) scale(22.0565 20.8531)">
<stop stop-color="#FAE100"/>
<stop offset="0.0544" stop-color="#FADC04"/>
<stop offset="0.1167" stop-color="#FBCE0E"/>
<stop offset="0.1829" stop-color="#FCB720"/>
<stop offset="0.2514" stop-color="#FE9838"/>
<stop offset="0.3054" stop-color="#FF7950"/>
<stop offset="0.4922" stop-color="#FF1C74"/>
<stop offset="1" stop-color="#6C1CD1"/>
</radialGradient>
<linearGradient id="paint1_linear" x1="7.6707" y1="8.93085" x2="-25.2714" y2="-10.6685" gradientUnits="userSpaceOnUse">
<stop stop-color="#A1B5D8" stop-opacity="0"/>
<stop offset="0.3094" stop-color="#90A2BD" stop-opacity="0.309804"/>
<stop offset="0.7554" stop-color="#7C8B9C" stop-opacity="0.756863"/>
<stop offset="1" stop-color="#748290"/>
</linearGradient>
<linearGradient id="paint2_linear" x1="10.0001" y1="17.4069" x2="10.0001" y2="20.3542" gradientUnits="userSpaceOnUse">
<stop stop-color="#FAE100" stop-opacity="0"/>
<stop offset="0.3068" stop-color="#FCA800" stop-opacity="0.305882"/>
<stop offset="0.6275" stop-color="#FE7300" stop-opacity="0.627451"/>
<stop offset="0.8685" stop-color="#FF5200" stop-opacity="0.866667"/>
<stop offset="1" stop-color="#FF4500"/>
</linearGradient>
<linearGradient id="paint3_linear" x1="8.86211" y1="9.06695" x2="4.18986" y2="4.12505" gradientUnits="userSpaceOnUse">
<stop stop-color="#833AB4" stop-opacity="0"/>
<stop offset="1" stop-color="#833AB4"/>
</linearGradient>
<linearGradient id="paint4_linear" x1="13.7071" y1="18.0095" x2="11.4887" y2="6.94795" gradientUnits="userSpaceOnUse">
<stop stop-color="#833AB4" stop-opacity="0"/>
<stop offset="1" stop-color="#833AB4"/>
</linearGradient>
<linearGradient id="paint5_linear" x1="14.6471" y1="14.563" x2="5.28051" y2="4.65579" gradientUnits="userSpaceOnUse">
<stop stop-color="#833AB4" stop-opacity="0"/>
<stop offset="1" stop-color="#833AB4"/>
</linearGradient>
<linearGradient id="paint6_linear" x1="15.3832" y1="8.88663" x2="12.2858" y2="5.61051" gradientUnits="userSpaceOnUse">
<stop stop-color="#833AB4" stop-opacity="0"/>
<stop offset="1" stop-color="#833AB4"/>
</linearGradient>
<linearGradient id="paint7_linear" x1="13.9709" y1="6.44121" x2="6.33394" y2="14.5189" gradientUnits="userSpaceOnUse">
<stop stop-color="#833AB4"/>
<stop offset="0.0922" stop-color="#9C3495"/>
<stop offset="0.2927" stop-color="#DC2546"/>
<stop offset="0.392" stop-color="#FD1D1D"/>
<stop offset="0.5589" stop-color="#FC6831"/>
<stop offset="0.6887" stop-color="#FC9B40"/>
<stop offset="0.7521" stop-color="#FCAF45"/>
<stop offset="0.7806" stop-color="#FDB750"/>
<stop offset="0.8656" stop-color="#FECB6A"/>
<stop offset="0.9415" stop-color="#FFD87A"/>
<stop offset="1" stop-color="#FFDC80"/>
</linearGradient>
</defs>
</svg>
