<svg width="20" height="20" viewBox="0 0 20 20" fill="none" xmlns="http://www.w3.org/2000/svg">
<path d="M18.896 0.389526H1.10306C0.493774 0.389815 -0.000152553 0.857082 3.53445e-08 1.43327V18.2555C0.000305211 18.8315 0.494537 19.2985 1.10397 19.2983H18.896C19.5056 19.2985 19.9998 18.8314 20 18.255C20 18.2549 20 18.2547 20 18.2546V1.4324C19.9997 0.856361 19.5055 0.389382 18.896 0.389526Z" fill="#4267B2"/>
<path d="M13.8086 19.2983V11.986H16.416L16.8066 9.12385H13.8086V7.30097C13.8086 6.47421 14.0514 5.91087 15.3053 5.91087H16.8945V3.35788C16.618 3.32312 15.6694 3.24536 14.5656 3.24536C12.2609 3.24536 10.6836 4.57487 10.6836 7.01749V9.12385H8.08594V11.986H10.6836V19.2983H13.8086Z" fill="white"/>
</svg>
