<svg width="159" height="72" viewBox="0 0 159 72" fill="none" xmlns="http://www.w3.org/2000/svg">
<mask id="path-1-inside-1" fill="white">
<path fill-rule="evenodd" clip-rule="evenodd" d="M135 0C148.255 0 159 10.7452 159 24C159 37.2548 148.255 48 135 48H34.9955C32.5477 53.3721 33.7388 59.8191 38.5 71.5C22.8777 57.4258 12.0904 47.4053 6.60167 40.5318C2.51059 36.2277 0 30.407 0 24C0 10.7452 10.7452 0 24 0H135Z"/>
</mask>
<path fill-rule="evenodd" clip-rule="evenodd" d="M135 0C148.255 0 159 10.7452 159 24C159 37.2548 148.255 48 135 48H34.9955C32.5477 53.3721 33.7388 59.8191 38.5 71.5C22.8777 57.4258 12.0904 47.4053 6.60167 40.5318C2.51059 36.2277 0 30.407 0 24C0 10.7452 10.7452 0 24 0H135Z" fill="white"/>
<path d="M34.9955 48L34.0855 47.5854L34.3522 47H34.9955V48ZM38.5 71.5L39.426 71.1226L37.8307 72.243L38.5 71.5ZM6.60167 40.5318L7.32649 39.8429L7.35619 39.8741L7.3831 39.9078L6.60167 40.5318ZM158 24C158 11.2975 147.703 1 135 1V-1C148.807 -1 160 10.1929 160 24H158ZM135 47C147.703 47 158 36.7025 158 24H160C160 37.8071 148.807 49 135 49V47ZM34.9955 47H135V49H34.9955V47ZM37.574 71.8774C32.8243 60.2248 31.4397 53.3919 34.0855 47.5854L35.9055 48.4146C33.6556 53.3523 34.6534 59.4135 39.426 71.1226L37.574 71.8774ZM7.3831 39.9078C12.8088 46.7023 23.5228 56.6609 39.1693 70.757L37.8307 72.243C22.2327 58.1906 11.372 48.1083 5.82024 41.1558L7.3831 39.9078ZM1 24C1 30.1405 3.40501 35.7172 7.32649 39.8429L5.87685 41.2207C1.61617 36.7382 -1 30.6735 -1 24H1ZM24 1C11.2975 1 1 11.2975 1 24H-1C-1 10.1929 10.1929 -1 24 -1V1ZM135 1H24V-1H135V1Z" fill="black" mask="url(#path-1-inside-1)"/>
</svg>
