<svg width="20" height="20" fill="none" xmlns="http://www.w3.org/2000/svg"><path d="M19.658 4.097c-.182-1.612-1.53-2.886-3.235-3.058a63.874 63.874 0 00-12.846 0C1.872 1.21.524 2.485.342 4.097a54.013 54.013 0 000 12.145c.182 1.612 1.53 2.886 3.235 3.058 4.278.432 8.568.432 12.846 0 1.706-.172 3.053-1.446 3.235-3.058.456-4.045.456-8.1 0-12.145z" fill="url(#paint0_radial)"/><path d="M18.57 4.781c-.162-1.43-1.357-2.561-2.87-2.714a56.703 56.703 0 00-11.4 0C2.788 2.22 1.593 3.35 1.43 4.781a47.947 47.947 0 000 10.777c.162 1.43 1.357 2.561 2.87 2.714 3.796.383 7.603.383 11.4 0 1.513-.153 2.708-1.283 2.87-2.714a47.932 47.932 0 000-10.777z" fill="url(#paint1_linear)"/><path d="M.3 15.85l.043.392c.182 1.613 1.529 2.886 3.235 3.058 4.277.432 8.567.432 12.845 0 1.706-.172 3.053-1.445 3.235-3.058l.043-.392H.3z" fill="url(#paint2_linear)"/><path d="M19.657 16.242c.246-2.174.36-4.35.34-6.526l-4.57-4.322c-.572-.617-1.406-1.001-2.386-1.035a91.089 91.089 0 00-6.055 0c-1.674.055-2.845 1.12-3.145 2.683-.053.276-.085.556-.127.834v4.585c.023.149.057.296.068.446.067.951.48 1.766 1.143 2.317l4.652 4.398a63.906 63.906 0 006.846-.322c1.705-.172 3.053-1.446 3.235-3.058z" fill="url(#paint3_linear)"/><path d="M19.658 16.242c-.182 1.612-1.53 2.886-3.235 3.058-2.28.23-4.563.338-6.846.322l-4.645-4.391c.538.445 1.24.717 2.055.746a87.17 87.17 0 006.054 0c1.823-.062 3.142-1.337 3.2-3.06.06-1.831.06-3.666 0-5.496a3.093 3.093 0 00-.811-2.024l4.568 4.32a54.17 54.17 0 01-.34 6.525z" fill="url(#paint4_linear)"/><path d="M12.36 8.122A3.28 3.28 0 0010 7.141c-1.769 0-3.203 1.356-3.203 3.028 0 .883.4 1.678 1.037 2.232l7.412 7.007c.392-.032.785-.068 1.177-.108 1.705-.172 3.053-1.446 3.235-3.058.041-.371.08-.742.114-1.113L12.36 8.122z" fill="url(#paint5_linear)"/><path d="M19.961 12.206l-5.965-5.639a.776.776 0 00-.605-.285c-.421 0-.763.323-.763.72 0 .235.119.442.302.574l6.925 6.547c.047-.639.082-1.278.106-1.917z" fill="url(#paint6_linear)"/><path d="M3.714 7.876c.042-.278.074-.558.127-.834.3-1.564 1.471-2.628 3.145-2.682a91.089 91.089 0 016.055 0c1.822.061 3.142 1.337 3.199 3.06.06 1.831.06 3.666 0 5.496-.057 1.724-1.376 3-3.2 3.062a87.11 87.11 0 01-6.053-.001c-1.823-.065-3.083-1.344-3.205-3.07-.01-.15-.045-.297-.068-.446V7.876zm6.288 7.08c.922 0 1.846.026 2.767-.006 1.444-.05 2.333-.866 2.367-2.23.042-1.7.042-3.403 0-5.103-.034-1.364-.923-2.198-2.367-2.227a138.169 138.169 0 00-5.5 0c-1.433.028-2.324.845-2.363 2.195a90.05 90.05 0 000 5.167c.039 1.35.93 2.148 2.363 2.198.91.032 1.822.006 2.733.006z" fill="url(#paint7_linear)"/><path d="M3.714 7.876c.042-.278.074-.558.127-.834.3-1.564 1.471-2.628 3.145-2.682a91.089 91.089 0 016.055 0c1.822.061 3.142 1.337 3.199 3.06.06 1.831.06 3.666 0 5.496-.057 1.724-1.376 3-3.2 3.062a87.11 87.11 0 01-6.053-.001c-1.823-.065-3.083-1.344-3.205-3.07-.01-.15-.045-.297-.068-.446V7.876zm6.288 7.08c.922 0 1.846.026 2.767-.006 1.444-.05 2.333-.866 2.367-2.23.042-1.7.042-3.403 0-5.103-.034-1.364-.923-2.198-2.367-2.227a138.169 138.169 0 00-5.5 0c-1.433.028-2.324.845-2.363 2.195a90.05 90.05 0 000 5.167c.039 1.35.93 2.148 2.363 2.198.91.032 1.822.006 2.733.006z" fill="#fff"/><path d="M10 7.141c-1.77 0-3.204 1.356-3.204 3.029 0 1.672 1.435 3.028 3.204 3.028 1.77 0 3.203-1.356 3.203-3.028 0-1.673-1.434-3.029-3.203-3.029zm0 5.015c-1.16 0-2.1-.89-2.1-1.986 0-1.097.94-1.986 2.1-1.986 1.16 0 2.1.889 2.1 1.986s-.94 1.986-2.1 1.986zm4.152-5.153c0 .398-.34.72-.762.72-.42 0-.762-.322-.762-.72 0-.398.341-.72.762-.72s.762.322.762.72z" fill="#fff"/><defs><linearGradient id="paint1_linear" x1="7.671" y1="8.931" x2="-25.271" y2="-10.668" gradientUnits="userSpaceOnUse"><stop stop-color="#A1B5D8" stop-opacity="0"/><stop offset=".309" stop-color="#90A2BD" stop-opacity=".31"/><stop offset=".755" stop-color="#7C8B9C" stop-opacity=".757"/><stop offset="1" stop-color="#748290"/></linearGradient><linearGradient id="paint2_linear" x1="10" y1="17.407" x2="10" y2="20.354" gradientUnits="userSpaceOnUse"><stop stop-color="#FAE100" stop-opacity="0"/><stop offset=".307" stop-color="#FCA800" stop-opacity=".306"/><stop offset=".627" stop-color="#FE7300" stop-opacity=".627"/><stop offset=".869" stop-color="#FF5200" stop-opacity=".867"/><stop offset="1" stop-color="#FF4500"/></linearGradient><linearGradient id="paint3_linear" x1="8.862" y1="9.067" x2="4.19" y2="4.125" gradientUnits="userSpaceOnUse"><stop stop-color="#833AB4" stop-opacity="0"/><stop offset="1" stop-color="#833AB4"/></linearGradient><linearGradient id="paint4_linear" x1="13.707" y1="18.009" x2="11.489" y2="6.948" gradientUnits="userSpaceOnUse"><stop stop-color="#833AB4" stop-opacity="0"/><stop offset="1" stop-color="#833AB4"/></linearGradient><linearGradient id="paint5_linear" x1="14.647" y1="14.563" x2="5.281" y2="4.656" gradientUnits="userSpaceOnUse"><stop stop-color="#833AB4" stop-opacity="0"/><stop offset="1" stop-color="#833AB4"/></linearGradient><linearGradient id="paint6_linear" x1="15.383" y1="8.887" x2="12.286" y2="5.611" gradientUnits="userSpaceOnUse"><stop stop-color="#833AB4" stop-opacity="0"/><stop offset="1" stop-color="#833AB4"/></linearGradient><linearGradient id="paint7_linear" x1="13.971" y1="6.441" x2="6.334" y2="14.519" gradientUnits="userSpaceOnUse"><stop stop-color="#833AB4"/><stop offset=".092" stop-color="#9C3495"/><stop offset=".293" stop-color="#DC2546"/><stop offset=".392" stop-color="#FD1D1D"/><stop offset=".559" stop-color="#FC6831"/><stop offset=".689" stop-color="#FC9B40"/><stop offset=".752" stop-color="#FCAF45"/><stop offset=".781" stop-color="#FDB750"/><stop offset=".866" stop-color="#FECB6A"/><stop offset=".942" stop-color="#FFD87A"/><stop offset="1" stop-color="#FFDC80"/></linearGradient><radialGradient id="paint0_radial" cx="0" cy="0" r="1" gradientUnits="userSpaceOnUse" gradientTransform="matrix(22.0565 0 0 20.8531 4.1 17.24)"><stop stop-color="#FAE100"/><stop offset=".054" stop-color="#FADC04"/><stop offset=".117" stop-color="#FBCE0E"/><stop offset=".183" stop-color="#FCB720"/><stop offset=".251" stop-color="#FE9838"/><stop offset=".305" stop-color="#FF7950"/><stop offset=".492" stop-color="#FF1C74"/><stop offset="1" stop-color="#6C1CD1"/></radialGradient></defs></svg>