<svg width="159" height="72" fill="none" xmlns="http://www.w3.org/2000/svg"><mask id="path-1-inside-1" fill="#fff"><path fill-rule="evenodd" clip-rule="evenodd" d="M135 0c13.255 0 24 10.745 24 24s-10.745 24-24 24H34.995c-2.447 5.372-1.256 11.82 3.505 23.5C22.878 57.426 12.09 47.405 6.602 40.532A23.918 23.918 0 010 24C0 10.745 10.745 0 24 0h111z"/></mask><path fill-rule="evenodd" clip-rule="evenodd" d="M135 0c13.255 0 24 10.745 24 24s-10.745 24-24 24H34.995c-2.447 5.372-1.256 11.82 3.505 23.5C22.878 57.426 12.09 47.405 6.602 40.532A23.918 23.918 0 010 24C0 10.745 10.745 0 24 0h111z" fill="#fff"/><path d="M34.995 48l-.91-.415.267-.585h.644v1zM38.5 71.5l.926-.377-1.595 1.12.669-.743zM6.602 40.532l.724-.69.03.032.027.034-.781.624zM158 24c0-12.703-10.297-23-23-23v-2c13.807 0 25 11.193 25 25h-2zm-23 23c12.703 0 23-10.297 23-23h2c0 13.807-11.193 25-25 25v-2zM34.995 47H135v2H34.995v-2zm2.579 24.877c-4.75-11.652-6.134-18.485-3.488-24.292l1.82.83c-2.25 4.937-1.253 10.998 3.52 22.708l-1.852.754zm-30.19-31.97c5.425 6.795 16.139 16.754 31.785 30.85l-1.338 1.486C22.233 58.191 11.372 48.108 5.82 41.156l1.562-1.248zM1 24c0 6.14 2.405 11.717 6.326 15.843l-1.45 1.378A24.918 24.918 0 01-1 24h2zM24 1C11.297 1 1 11.297 1 24h-2C-1 10.193 10.193-1 24-1v2zm111 0H24v-2h111v2z" fill="#000" mask="url(#path-1-inside-1)"/></svg>