<svg width="637" height="211" viewBox="0 0 637 211" fill="none" xmlns="http://www.w3.org/2000/svg">
<path d="M12.6 52.18H59.4C70.8 52.18 79.8 52.96 86.4 54.52C93.12 56.08 97.98 58.84 100.98 62.8C104.1 66.64 105.66 72.04 105.66 79V101.14C105.66 108.82 103.98 114.82 100.62 119.14C97.38 123.46 92.16 126.52 84.96 128.32C77.88 130.12 68.28 131.02 56.16 131.02H40.68V169H12.6V52.18ZM58.5 111.76C65.82 111.76 70.98 110.92 73.98 109.24C76.98 107.44 78.48 104.44 78.48 100.24V81.52C78.48 77.68 77.04 75.16 74.16 73.96C71.4 72.76 66.06 72.16 58.14 72.16H40.68V111.76H58.5ZM165.732 170.8C160.332 170.8 155.892 170.62 152.412 170.26C148.932 169.9 145.212 169.18 141.252 168.1C136.932 166.9 133.452 165.22 130.812 163.06C128.172 160.78 125.952 157.6 124.152 153.52C122.352 149.56 121.452 144.76 121.452 139.12V113.38C121.452 107.62 122.352 102.58 124.152 98.26C125.952 93.94 128.292 90.58 131.172 88.18C133.692 86.14 136.992 84.46 141.072 83.14C145.272 81.7 149.352 80.8 153.312 80.44C157.872 80.2 162.012 80.08 165.732 80.08C171.252 80.08 175.632 80.26 178.872 80.62C182.232 80.86 185.892 81.58 189.852 82.78C194.172 84.1 197.652 85.9 200.292 88.18C203.052 90.46 205.392 93.7 207.312 97.9C209.112 102.22 210.012 107.38 210.012 113.38V139.12C210.012 144.52 209.112 149.26 207.312 153.34C205.632 157.42 203.412 160.6 200.652 162.88C198.252 164.92 194.952 166.6 190.752 167.92C186.672 169.12 182.652 169.9 178.692 170.26C175.092 170.62 170.772 170.8 165.732 170.8ZM165.732 154.42C170.652 154.42 174.372 154.06 176.892 153.34C179.412 152.5 181.152 151.24 182.112 149.56C183.192 147.88 183.732 145.42 183.732 142.18V109.24C183.732 104.44 182.472 101.08 179.952 99.16C177.432 97.24 172.692 96.28 165.732 96.28C158.772 96.28 154.032 97.24 151.512 99.16C148.992 101.08 147.732 104.44 147.732 109.24V142.18C147.732 145.42 148.212 147.88 149.172 149.56C150.252 151.24 152.052 152.5 154.572 153.34C157.092 154.06 160.812 154.42 165.732 154.42ZM230.815 43H257.095V169H230.815V43ZM324.056 170.8C319.616 170.8 315.896 170.62 312.896 170.26C309.896 169.9 306.896 169.18 303.896 168.1C300.536 167.02 297.776 165.52 295.616 163.6C293.576 161.68 291.896 159.04 290.576 155.68C289.136 152.2 288.416 148.18 288.416 143.62V98.08H270.776V81.88H288.416V56.68H314.696V81.88H338.636V98.08H314.696V139.12C314.696 143.32 315.056 146.5 315.776 148.66C316.496 150.7 317.876 152.2 319.916 153.16C321.956 154 325.076 154.42 329.276 154.42C330.956 154.42 334.076 154.12 338.636 153.52V169.9C332.996 170.5 328.136 170.8 324.056 170.8ZM378.057 170.8C369.897 170.8 363.777 170.08 359.697 168.64C355.737 167.08 352.917 164.38 351.237 160.54C349.677 156.58 348.897 150.7 348.897 142.9C348.897 135.94 349.737 130.48 351.417 126.52C353.217 122.56 356.037 119.74 359.877 118.06C363.837 116.26 369.237 115.36 376.077 115.36H405.597V109.42C405.597 105.7 405.057 102.94 403.977 101.14C403.017 99.34 401.157 98.08 398.397 97.36C395.757 96.64 391.737 96.28 386.337 96.28C378.897 96.28 368.697 97 355.737 98.44V81.88C365.217 80.68 376.317 80.08 389.037 80.08C400.197 80.08 408.777 80.92 414.777 82.6C420.897 84.28 425.277 87.16 427.917 91.24C430.557 95.32 431.877 101.26 431.877 109.06V169H406.137V161.08C404.097 164.56 401.337 167.02 397.857 168.46C394.377 170.02 387.777 170.8 378.057 170.8ZM388.317 154.42C393.597 154.42 397.377 154.24 399.657 153.88C401.337 153.64 402.477 153.28 403.077 152.8C403.797 152.32 404.397 151.54 404.877 150.46C405.357 149.62 405.597 148.36 405.597 146.68V129.76H387.597C383.517 129.76 380.637 130.06 378.957 130.66C377.277 131.14 376.137 132.22 375.537 133.9C374.937 135.46 374.637 138.28 374.637 142.36C374.637 146.32 374.937 149.08 375.537 150.64C376.137 152.2 377.277 153.22 378.957 153.7C380.757 154.18 383.877 154.42 388.317 154.42ZM443.078 81.88H470.978L490.058 142.18L508.418 81.88H534.878L502.838 169H476.198L443.078 81.88ZM570.616 170.8C562.456 170.8 556.336 170.08 552.256 168.64C548.296 167.08 545.476 164.38 543.796 160.54C542.236 156.58 541.456 150.7 541.456 142.9C541.456 135.94 542.296 130.48 543.976 126.52C545.776 122.56 548.596 119.74 552.436 118.06C556.396 116.26 561.796 115.36 568.636 115.36H598.156V109.42C598.156 105.7 597.616 102.94 596.536 101.14C595.576 99.34 593.716 98.08 590.956 97.36C588.316 96.64 584.296 96.28 578.896 96.28C571.456 96.28 561.256 97 548.296 98.44V81.88C557.776 80.68 568.876 80.08 581.596 80.08C592.756 80.08 601.336 80.92 607.336 82.6C613.456 84.28 617.836 87.16 620.476 91.24C623.116 95.32 624.436 101.26 624.436 109.06V169H598.696V161.08C596.656 164.56 593.896 167.02 590.416 168.46C586.936 170.02 580.336 170.8 570.616 170.8ZM580.876 154.42C586.156 154.42 589.936 154.24 592.216 153.88C593.896 153.64 595.036 153.28 595.636 152.8C596.356 152.32 596.956 151.54 597.436 150.46C597.916 149.62 598.156 148.36 598.156 146.68V129.76H580.156C576.076 129.76 573.196 130.06 571.516 130.66C569.836 131.14 568.696 132.22 568.096 133.9C567.496 135.46 567.196 138.28 567.196 142.36C567.196 146.32 567.496 149.08 568.096 150.64C568.696 152.2 569.836 153.22 571.516 153.7C573.316 154.18 576.436 154.42 580.876 154.42Z" fill="url(#paint0_diamond)"/>
<path d="M37.12 55.18H75.28C80.68 55.18 85 55.3 88.24 55.54C91.6 55.78 95.14 56.32 98.86 57.16C102.7 58 105.76 59.26 108.04 60.94C110.44 62.62 112.48 64.9 114.16 67.78C115.72 70.54 116.5 74.02 116.5 78.22V102.52C116.5 112.24 112.72 119.26 105.16 123.58C97.72 127.78 86.68 129.88 72.04 129.88H54.58V172H37.12V55.18ZM74.38 118.9C81.94 118.9 88 117.52 92.56 114.76C97.12 112 99.4 107.62 99.4 101.62V80.38C99.4 77.14 98.56 74.5 96.88 72.46C95.2 70.3 92.8 68.8 89.68 67.96C86.68 67.24 84.16 66.76 82.12 66.52C80.08 66.28 77.38 66.16 74.02 66.16H54.4V118.9H74.38ZM175.196 173.8C167.516 173.8 161.756 173.5 157.916 172.9C154.076 172.42 150.236 171.28 146.396 169.48C142.436 167.68 139.556 164.8 137.756 160.84C135.956 156.76 135.056 151.3 135.056 144.46V114.22C135.056 108.82 135.716 104.08 137.036 100C138.356 95.92 140.096 92.74 142.256 90.46C144.056 88.42 146.756 86.86 150.356 85.78C154.076 84.58 157.856 83.8 161.696 83.44C166.016 83.2 170.516 83.08 175.196 83.08C181.436 83.08 186.116 83.26 189.236 83.62C192.476 83.86 195.896 84.46 199.496 85.42C203.216 86.5 206.096 88.12 208.136 90.28C210.176 92.44 211.916 95.56 213.356 99.64C214.676 103.84 215.336 108.7 215.336 114.22V144.46C215.336 154.66 212.996 162.1 208.316 166.78C206.396 168.7 203.636 170.2 200.036 171.28C196.436 172.36 192.716 173.08 188.876 173.44C184.316 173.68 179.756 173.8 175.196 173.8ZM175.196 163.18C180.236 163.18 183.896 163.06 186.176 162.82C188.456 162.58 190.676 161.92 192.836 160.84C194.996 159.88 196.496 158.32 197.336 156.16C198.296 153.88 198.776 150.76 198.776 146.8V111.52C198.776 106.12 198.116 102.22 196.796 99.82C195.476 97.3 193.196 95.68 189.956 94.96C186.836 94.12 181.916 93.7 175.196 93.7C168.476 93.7 163.496 94.12 160.256 94.96C157.136 95.68 154.916 97.3 153.596 99.82C152.276 102.22 151.616 106.12 151.616 111.52V146.8C151.616 150.76 152.036 153.88 152.876 156.16C153.836 158.32 155.396 159.88 157.556 160.84C159.716 161.92 161.936 162.58 164.216 162.82C166.496 163.06 170.156 163.18 175.196 163.18ZM240.201 46H256.401V172H240.201V46ZM320.638 173.8C313.198 173.8 307.378 173.02 303.178 171.46C298.978 169.78 295.918 167.02 293.998 163.18C292.198 159.22 291.298 153.7 291.298 146.62V95.5H271.858V84.88H291.298V57.88H307.678V84.88H338.818V95.5H307.678V147.52C307.678 151.84 308.158 155.08 309.118 157.24C310.198 159.4 311.998 160.96 314.518 161.92C317.158 162.76 320.938 163.18 325.858 163.18C327.418 163.18 331.738 162.7 338.818 161.74V172.36C332.698 173.32 326.638 173.8 320.638 173.8ZM382.94 173.8C374.66 173.8 368.24 173.02 363.68 171.46C359.24 169.9 356 167.14 353.96 163.18C352.04 159.22 351.08 153.52 351.08 146.08C351.08 139.48 351.98 134.38 353.78 130.78C355.7 127.06 358.88 124.42 363.32 122.86C367.88 121.3 374.3 120.52 382.58 120.52H408.68V106.66C408.68 103.42 408.02 100.96 406.7 99.28C405.5 97.48 403.4 96.22 400.4 95.5C397.52 94.78 393.26 94.42 387.62 94.42C378.62 94.42 368.66 95.14 357.74 96.58V84.7C369.62 83.62 380.36 83.08 389.96 83.08C400.04 83.08 407.48 83.86 412.28 85.42C417.08 86.86 420.38 89.44 422.18 93.16C423.98 96.88 424.88 102.64 424.88 110.44V172H409.22V163.72C407.9 170.44 399.14 173.8 382.94 173.8ZM385.64 163.18C391.52 163.18 396.5 162.76 400.58 161.92C405.98 160.84 408.68 158.32 408.68 154.36V130.6H383.66C378.5 130.6 374.78 131.02 372.5 131.86C370.22 132.58 368.72 134.02 368 136.18C367.28 138.34 366.92 141.82 366.92 146.62C366.92 150.94 367.34 154.3 368.18 156.7C369.02 158.98 370.52 160.66 372.68 161.74C374.84 162.7 378.08 163.18 382.4 163.18H385.64ZM439.615 84.88H456.715L480.835 157.96H481.735L505.135 84.88H520.795L490.375 172H470.935L439.615 84.88ZM562.315 173.8C554.035 173.8 547.615 173.02 543.055 171.46C538.615 169.9 535.375 167.14 533.335 163.18C531.415 159.22 530.455 153.52 530.455 146.08C530.455 139.48 531.355 134.38 533.155 130.78C535.075 127.06 538.255 124.42 542.695 122.86C547.255 121.3 553.675 120.52 561.955 120.52H588.055V106.66C588.055 103.42 587.395 100.96 586.075 99.28C584.875 97.48 582.775 96.22 579.775 95.5C576.895 94.78 572.635 94.42 566.995 94.42C557.995 94.42 548.035 95.14 537.115 96.58V84.7C548.995 83.62 559.735 83.08 569.335 83.08C579.415 83.08 586.855 83.86 591.655 85.42C596.455 86.86 599.755 89.44 601.555 93.16C603.355 96.88 604.255 102.64 604.255 110.44V172H588.595V163.72C587.275 170.44 578.515 173.8 562.315 173.8ZM565.015 163.18C570.895 163.18 575.875 162.76 579.955 161.92C585.355 160.84 588.055 158.32 588.055 154.36V130.6H563.035C557.875 130.6 554.155 131.02 551.875 131.86C549.595 132.58 548.095 134.02 547.375 136.18C546.655 138.34 546.295 141.82 546.295 146.62C546.295 150.94 546.715 154.3 547.555 156.7C548.395 158.98 549.895 160.66 552.055 161.74C554.215 162.7 557.455 163.18 561.775 163.18H565.015Z" fill="white"/>
<line x1="34" y1="55" x2="34" y2="172" stroke="white" stroke-width="4"/>
<line x1="315" y1="60" x2="315" y2="168" stroke="white" stroke-width="4"/>
<line x1="258" y1="41" x2="258" y2="172" stroke="white" stroke-width="4"/>
<line x1="381" y1="130" x2="381" y2="169" stroke="white" stroke-width="4"/>
<line x1="581" y1="130" x2="581" y2="168" stroke="white" stroke-width="4"/>
<line x1="460.9" y1="83.374" x2="489.9" y2="171.374" stroke="white" stroke-width="4"/>
<line x1="162" y1="93" x2="162" y2="173" stroke="white" stroke-width="4"/>
<defs>
<radialGradient id="paint0_diamond" cx="0" cy="0" r="1" gradientUnits="userSpaceOnUse" gradientTransform="translate(318.95 55.8268) rotate(90.1696) scale(152.174 466.032)">
<stop stop-color="#BBDAFF"/>
<stop offset="1" stop-color="#BBF7FF" stop-opacity="0"/>
</radialGradient>
</defs>
</svg>
